<?xml version="1.0" encoding="UTF-8"?>
<svg id="b" data-name="Слой 2" xmlns="http://www.w3.org/2000/svg" viewBox="0 0 332.88 384.38">
  <defs>
    <style>
      .d {
        fill: #0000fa;
      }

      .e {
        fill: #fff;
      }
    </style>
  </defs>
  <g id="c" data-name="Слой 1">
    <polygon class="e" points="166.44 0 0 96.09 0 288.58 166.44 384.38 332.88 288.28 332.88 96.22 166.44 0"/>
    <g>
      <polygon class="d" points="249.66 144.14 249.66 288.28 291.27 264.26 291.27 120.12 249.66 144.14"/>
      <polygon class="d" points="166.44 192.19 166.44 336.33 208.05 312.31 208.05 168.17 166.44 192.19"/>
      <polygon points="291.27 120.12 166.44 48.05 124.83 72.07 249.66 144.14 291.27 120.12"/>
      <polygon points="208.05 168.17 83.22 96.09 41.61 120.12 166.44 192.19 208.05 168.17"/>
      <polygon class="d" points="41.61 120.12 41.61 264.26 83.22 240.24 83.22 96.09 41.61 120.12"/>
      <polygon class="d" points="124.83 120.12 124.83 216.21 166.44 192.19 166.44 96.09 124.83 120.12"/>
      <polygon points="291.27 264.26 166.44 192.19 124.83 216.21 249.66 288.28 291.27 264.26"/>
      <polygon class="d" points="41.61 120.12 166.44 48.05 166.44 96.09 41.61 168.17 41.61 120.12"/>
      <polygon points="208.05 312.31 83.22 240.24 41.61 264.26 166.44 336.33 208.05 312.31"/>
    </g>
  </g>
</svg>